<svg width="1605" height="1368" viewBox="0 0 1605 1368" fill="none" xmlns="http://www.w3.org/2000/svg">
<line x1="1088.61" y1="499.763" x2="1001.46" y2="662.98" stroke="white"/>
<line x1="1117.53" y1="513.721" x2="1030.3" y2="677.084" stroke="white"/>
<path d="M1221.52 569.452L1134.86 731.679" stroke="white"/>
<path d="M777.225 338.525L690.434 500.678" stroke="white"/>
<line x1="930.323" y1="416.729" x2="843.565" y2="579.211" stroke="white"/>
<line x1="640.701" y1="262.28" x2="552.399" y2="427.655" stroke="white"/>
<line x1="535.09" y1="207.489" x2="447.011" y2="372.447" stroke="white"/>
<line x1="507.13" y1="192.468" x2="419.05" y2="357.426" stroke="white"/>
<line x1="486.022" y1="685.452" x2="427.929" y2="794.249" stroke="white"/>
<line x1="617.02" y1="752.419" x2="557.574" y2="863.751" stroke="white"/>
<line x1="902.589" y1="903.726" x2="844.005" y2="1013.44" stroke="white"/>
<line x1="1061.2" y1="986.517" x2="1002.39" y2="1096.65" stroke="white"/>
<line x1="1154.62" y1="1036.74" x2="1094.98" y2="1148.43" stroke="white"/>
<line x1="145.759" y1="1.67325" x2="1604.3" y2="770.999" stroke="white" stroke-width="3"/>
<line x1="88.7213" y1="181.761" x2="1547.26" y2="951.087" stroke="white" stroke-width="3"/>
<line x1="0.699812" y1="569.883" x2="1509.92" y2="1365.94" stroke="white" stroke-width="3"/>
<line x1="58.919" y1="458.685" x2="1510.38" y2="1224.28" stroke="white" stroke-width="3"/>
<line x1="1274.8" y1="1098.84" x2="1215.8" y2="1209.33" stroke="white"/>
<line x1="523.11" y1="703.499" x2="464.55" y2="813.171" stroke="white"/>
<line x1="735.103" y1="816.23" x2="676.613" y2="925.772" stroke="white"/>
<line x1="326.369" y1="601.242" x2="268.435" y2="709.744" stroke="white"/>
<line x1="349.05" y1="109.468" x2="260.931" y2="274.466" stroke="white"/>
<path d="M1360.03 643.456L1272.56 806.679" stroke="white"/>
</svg>
