<svg width="613" height="613" viewBox="0 0 613 613" fill="none" xmlns="http://www.w3.org/2000/svg">
<rect width="613" height="613" fill="white"/>
<path d="M302.345 56.0991C294.779 95.754 291.3 135.605 291.403 175.798C291.938 175.829 292.484 175.87 293.019 175.901C293.338 167.577 293.554 159.243 294.038 150.919C294.264 146.949 295.088 143.019 295.458 139.059C295.654 137.022 295.458 134.954 295.448 132.896C295.448 129.856 295.448 126.816 295.448 123.776C296.138 123.683 296.838 123.59 297.527 123.497C298.351 127.209 299.771 130.911 299.843 134.633C299.915 138.49 298.68 142.378 298.021 146.256C298.495 146.421 298.968 146.587 299.442 146.752C299.884 145.439 300.656 144.136 300.718 142.792C301.078 135.44 301.243 128.088 301.531 120.736C302.334 100.49 303.158 80.2332 304.002 59.987C304.084 57.981 304.444 55.9957 305.484 54C308.943 80.4711 308.912 107.139 311.217 133.754C311.65 128.946 312.072 124.128 312.504 119.319C313.091 119.237 313.667 119.164 314.254 119.082C314.81 120.86 315.376 122.628 315.921 124.355C317.908 121.905 317.198 108.152 314.326 91.2353C312.442 80.1609 310.703 69.0554 309.478 57.7949C311.104 62.6341 312.957 67.4113 314.336 72.3126C320.152 93.0138 323.271 114.139 324.959 135.605C327.254 164.765 327.11 193.935 327.151 223.115C327.151 225.369 326.719 227.675 329.303 229.257C330.105 229.753 330.167 231.822 330.188 233.186C330.27 240.549 330.63 247.942 330.136 255.273C329.375 266.658 331.763 277.277 335.942 287.742C337.198 290.895 337.836 294.494 337.887 297.896C338.299 328.493 338.484 359.1 338.793 389.707C339.03 412.962 339.349 436.207 339.616 459.462C339.853 479.74 340.049 500.027 340.327 520.305C340.388 524.947 340.697 529.59 340.975 534.223C341.15 537.128 340.43 539.32 337.856 541.171C334.336 543.684 334.655 544.997 337.959 547.675C339.071 548.575 340.059 550.446 339.966 551.801C339.894 552.918 338.309 554.179 337.115 554.924C336.086 555.565 334.676 555.782 333.41 555.834C322.272 556.299 311.135 556.899 299.987 557.013C293.863 557.075 287.707 556.496 281.614 555.813C278.876 555.503 276.045 554.614 273.616 553.311C270.065 551.418 270.147 549.247 273.41 547.024C274.141 546.527 274.851 546 275.911 545.235C275.088 543.973 274.604 542.422 273.565 541.781C270.291 539.775 269.962 536.839 270.003 533.426C270.405 501.392 270.765 469.368 271.053 437.334C271.31 408.526 271.413 379.708 271.66 350.9C271.815 332.556 272.01 314.213 272.412 295.879C272.484 292.736 273.287 289.437 274.512 286.532C278.691 276.616 280.79 266.482 280.224 255.635C279.813 247.787 280.42 239.887 280.615 232.018C280.636 231.005 280.626 229.443 281.202 229.092C284.795 226.941 283.796 223.498 283.806 220.416C283.868 205.557 283.395 190.678 283.95 175.839C285.155 143.722 286.236 111.544 294.625 80.2229C296.56 72.9951 298.814 65.8499 300.976 58.6841C301.253 57.7742 301.871 56.9573 302.334 56.0991L302.345 56.0991ZM295.932 290.296C296.107 289.675 296.282 289.055 296.457 288.445C295.057 287.949 293.657 287.452 292.257 286.945C292.031 287.742 291.804 288.538 291.578 289.334C293.029 289.655 294.48 289.975 295.932 290.296ZM319.884 546.486C322.324 549.381 324.063 549.309 325.772 547.779C325.772 547.344 325.772 546.92 325.772 546.486L319.884 546.486ZM311.3 137.146C311.063 137.146 310.826 137.156 310.589 137.167L310.589 146.887C310.826 146.876 311.063 146.866 311.3 146.856L311.3 137.146Z" fill="black"/>
</svg>
